<svg viewBox="0 0 512 512" xmlns="http://www.w3.org/2000/svg"><path d="m196 182c8.277344 0 15-6.722656 15-15s-6.722656-15-15-15-15 6.722656-15 15 6.722656 15 15 15zm0 0" fill="#657786"/><path d="m497 422h-15v-45c0-8.289062-6.710938-15-15-15-66.242188 0-114.152344 0-166 0v-30h105c8.289062 0 16-6.710938 16-15v-240c0-8.289062-7.710938-15-16-15h-135v-47c0-8.289062-6.710938-15-15-15s-15 6.710938-15 15v47h-135c-8.289062 0-15 6.710938-15 15v240c0 8.289062 6.710938 15 15 15h105v30c-51.882812 0-99.808594 0-166 0-8.289062 0-15 6.710938-15 15v45h-15c-8.289062 0-15 6.710938-15 15v60c0 8.289062 6.710938 15 15 15s15-6.710938 15-15v-45h30v45c0 8.289062 6.710938 15 15 15s15-6.710938 15-15v-60c0-8.289062-6.710938-15-15-15h-15v-30h60v105c0 8.289062 6.710938 15 15 15h241c8.289062 0 15-6.710938 15-15v-105h61v30h-15c-8.289062 0-15 6.710938-15 15v60c0 8.289062 6.710938 15 15 15s15-6.710938 15-15v-45h30v45c0 8.289062 6.710938 15 15 15s15-6.710938 15-15v-60c0-8.289062-6.710938-15-15-15zm-301 30c-8.285156 0-15-6.714844-15-15s6.714844-15 15-15 15 6.714844 15 15-6.714844 15-15 15zm120-330c24.8125 0 45 20.1875 45 45s-20.1875 45-45 45-45-20.1875-45-45 20.1875-45 45-45zm-120 0c24.8125 0 45 20.1875 45 45s-20.1875 45-45 45-45-20.1875-45-45 20.1875-45 45-45zm-30 150c-8.289062 0-15-6.710938-15-15s6.710938-15 15-15h180c8.289062 0 15 6.710938 15 15s-6.710938 15-15 15zm90 180c-8.285156 0-15-6.714844-15-15s6.714844-15 15-15 15 6.714844 15 15-6.714844 15-15 15zm60 0c-8.285156 0-15-6.714844-15-15s6.714844-15 15-15 15 6.714844 15 15-6.714844 15-15 15zm0 0" fill="#657786"/><path d="m316 182c8.277344 0 15-6.722656 15-15s-6.722656-15-15-15-15 6.722656-15 15 6.722656 15 15 15zm0 0" fill="#657786"/></svg>
